<svg xmlns="http://www.w3.org/2000/svg" xmlns:xlink="http://www.w3.org/1999/xlink" width="500" zoomAndPan="magnify" viewBox="0 0 375 374.999991" height="500" preserveAspectRatio="xMidYMid meet" version="1.0"><defs><clipPath id="5ba49f2310"><path d="M 40 165 L 186 165 L 186 310.023438 L 40 310.023438 Z M 40 165 " clip-rule="nonzero"/></clipPath></defs><path fill="#000000" d="M 239.335938 246.332031 C 237.546875 246.335938 235.820312 245.996094 234.167969 245.308594 C 232.511719 244.625 231.050781 243.648438 229.785156 242.382812 L 153.5625 166.15625 C 152.9375 165.527344 152.378906 164.84375 151.886719 164.105469 C 151.394531 163.367188 150.980469 162.589844 150.640625 161.769531 C 150.300781 160.953125 150.046875 160.105469 149.871094 159.238281 C 149.699219 158.367188 149.613281 157.488281 149.613281 156.601562 C 149.613281 155.714844 149.699219 154.835938 149.871094 153.96875 C 150.046875 153.097656 150.300781 152.253906 150.640625 151.433594 C 150.980469 150.613281 151.394531 149.835938 151.886719 149.097656 C 152.378906 148.359375 152.9375 147.679688 153.5625 147.050781 L 198.023438 102.589844 C 198.652344 101.960938 199.335938 101.402344 200.074219 100.910156 C 200.8125 100.417969 201.589844 100.003906 202.410156 99.664062 C 203.226562 99.328125 204.074219 99.070312 204.941406 98.898438 C 205.8125 98.726562 206.691406 98.640625 207.578125 98.640625 C 208.464844 98.640625 209.339844 98.726562 210.210938 98.898438 C 211.082031 99.070312 211.925781 99.328125 212.746094 99.664062 C 213.566406 100.003906 214.34375 100.417969 215.082031 100.910156 C 215.820312 101.402344 216.5 101.960938 217.128906 102.589844 L 293.351562 178.800781 C 293.976562 179.429688 294.535156 180.113281 295.027344 180.851562 C 295.519531 181.585938 295.933594 182.367188 296.273438 183.1875 C 296.613281 184.003906 296.867188 184.851562 297.042969 185.71875 C 297.214844 186.589844 297.300781 187.46875 297.300781 188.355469 C 297.300781 189.242188 297.214844 190.117188 297.042969 190.988281 C 296.867188 191.859375 296.613281 192.703125 296.273438 193.523438 C 295.933594 194.339844 295.519531 195.121094 295.027344 195.859375 C 294.535156 196.59375 293.976562 197.277344 293.351562 197.90625 L 248.890625 242.371094 C 247.625 243.640625 246.164062 244.617188 244.507812 245.304688 C 242.851562 245.992188 241.128906 246.332031 239.335938 246.332031 Z M 236.167969 235.984375 C 236.375 236.191406 236.601562 236.375 236.847656 236.535156 C 237.089844 236.699219 237.347656 236.835938 237.617188 236.949219 C 237.886719 237.058594 238.167969 237.144531 238.453125 237.203125 C 238.742188 237.257812 239.03125 237.289062 239.324219 237.289062 C 239.617188 237.289062 239.90625 237.257812 240.191406 237.203125 C 240.480469 237.144531 240.757812 237.058594 241.03125 236.949219 C 241.300781 236.835938 241.558594 236.699219 241.800781 236.535156 C 242.042969 236.375 242.269531 236.191406 242.476562 235.984375 L 286.9375 191.515625 C 287.144531 191.308594 287.328125 191.085938 287.492188 190.839844 C 287.65625 190.597656 287.792969 190.339844 287.902344 190.070312 C 288.015625 189.800781 288.101562 189.519531 288.15625 189.234375 C 288.214844 188.945312 288.242188 188.65625 288.242188 188.363281 C 288.242188 188.070312 288.214844 187.78125 288.15625 187.492188 C 288.101562 187.207031 288.015625 186.925781 287.902344 186.65625 C 287.792969 186.386719 287.65625 186.128906 287.492188 185.886719 C 287.328125 185.640625 287.144531 185.417969 286.9375 185.210938 L 210.726562 108.988281 C 210.519531 108.78125 210.292969 108.597656 210.050781 108.433594 C 209.808594 108.269531 209.550781 108.132812 209.28125 108.023438 C 209.007812 107.910156 208.730469 107.824219 208.445312 107.769531 C 208.15625 107.710938 207.867188 107.683594 207.574219 107.683594 C 207.28125 107.683594 206.992188 107.710938 206.707031 107.769531 C 206.417969 107.824219 206.140625 107.910156 205.871094 108.023438 C 205.597656 108.132812 205.34375 108.269531 205.097656 108.433594 C 204.855469 108.597656 204.628906 108.78125 204.421875 108.988281 L 159.960938 153.460938 C 159.753906 153.667969 159.570312 153.894531 159.40625 154.136719 C 159.246094 154.382812 159.105469 154.640625 158.996094 154.910156 C 158.882812 155.179688 158.796875 155.460938 158.742188 155.746094 C 158.683594 156.035156 158.65625 156.324219 158.65625 156.617188 C 158.65625 156.910156 158.683594 157.199219 158.742188 157.488281 C 158.796875 157.773438 158.882812 158.050781 158.996094 158.324219 C 159.105469 158.59375 159.246094 158.851562 159.40625 159.09375 C 159.570312 159.335938 159.753906 159.5625 159.960938 159.769531 Z M 236.167969 235.984375 " fill-opacity="1" fill-rule="nonzero"/><path fill="#000000" d="M 292.214844 192.414062 L 216.566406 183.328125 C 216.066406 183.265625 215.585938 183.125 215.128906 182.90625 C 214.671875 182.683594 214.265625 182.394531 213.90625 182.035156 C 213.550781 181.675781 213.257812 181.269531 213.035156 180.816406 C 212.816406 180.359375 212.671875 179.878906 212.613281 179.375 L 203.53125 103.71875 L 212.511719 102.644531 L 221.175781 174.765625 L 293.296875 183.421875 Z M 292.214844 192.414062 " fill-opacity="1" fill-rule="nonzero"/><path fill="#000000" d="M 153.789062 151.652344 L 212.613281 151.652344 L 212.613281 160.703125 L 153.789062 160.703125 Z M 153.789062 151.652344 " fill-opacity="1" fill-rule="nonzero"/><path fill="#000000" d="M 235.238281 183.328125 L 244.289062 183.328125 L 244.289062 242.152344 L 235.238281 242.152344 Z M 235.238281 183.328125 " fill-opacity="1" fill-rule="nonzero"/><path fill="#000000" d="M 296.171875 282.847656 C 295.007812 282.828125 293.855469 282.695312 292.714844 282.441406 C 291.574219 282.191406 290.472656 281.828125 289.40625 281.351562 C 288.34375 280.875 287.335938 280.296875 286.386719 279.617188 C 285.4375 278.9375 284.566406 278.171875 283.777344 277.3125 C 265.492188 259.027344 274.871094 243.800781 280.480469 234.703125 C 283.570312 229.683594 284.710938 227.4375 283.777344 226.5 C 276.882812 219.609375 264.015625 227.113281 263.867188 227.1875 L 259.21875 219.421875 C 259.992188 218.96875 278.269531 208.214844 290.15625 220.101562 C 296.324219 226.246094 291.796875 233.554688 288.179688 239.4375 C 282.652344 248.402344 276.9375 257.675781 290.167969 270.902344 C 290.566406 271.351562 291.003906 271.753906 291.488281 272.109375 C 291.96875 272.46875 292.484375 272.769531 293.03125 273.015625 C 293.578125 273.261719 294.144531 273.445312 294.730469 273.570312 C 295.316406 273.699219 295.910156 273.761719 296.507812 273.757812 C 297.109375 273.757812 297.703125 273.695312 298.289062 273.566406 C 298.875 273.4375 299.4375 273.25 299.984375 273.003906 C 300.53125 272.753906 301.042969 272.449219 301.523438 272.09375 C 302.007812 271.734375 302.445312 271.332031 302.839844 270.878906 C 326.0625 247.65625 323.484375 221.753906 315.507812 213.78125 C 309.703125 207.972656 291.324219 207.59375 281.09375 208.730469 L 280.097656 199.734375 C 283.265625 199.394531 311.15625 196.625 321.90625 207.382812 C 333.597656 219.074219 335.800781 250.703125 309.207031 277.300781 C 307.46875 279.023438 305.472656 280.367188 303.222656 281.324219 C 300.96875 282.285156 298.621094 282.792969 296.171875 282.847656 Z M 296.171875 282.847656 " fill-opacity="1" fill-rule="nonzero"/><path fill="#000000" d="M 291.347656 275.214844 L 282.566406 273.019531 C 282.839844 271.933594 289.378906 246.242188 302.8125 232.808594 L 309.214844 239.203125 C 297.550781 250.886719 291.421875 274.972656 291.347656 275.214844 Z M 291.347656 275.214844 " fill-opacity="1" fill-rule="nonzero"/><path fill="#000000" d="M 176.519531 136.71875 L 168.761719 132.0625 C 168.832031 131.945312 176.332031 119.078125 169.441406 112.183594 C 168.496094 111.246094 166.273438 112.386719 161.238281 115.480469 C 152.136719 121.082031 136.917969 130.472656 118.625 112.183594 C 118.023438 111.640625 117.464844 111.054688 116.945312 110.433594 C 116.429688 109.808594 115.957031 109.148438 115.535156 108.457031 C 115.113281 107.765625 114.746094 107.042969 114.429688 106.296875 C 114.109375 105.550781 113.851562 104.785156 113.644531 104.003906 C 113.4375 103.21875 113.289062 102.421875 113.199219 101.617188 C 113.109375 100.8125 113.078125 100.003906 113.105469 99.191406 C 113.132812 98.382812 113.222656 97.578125 113.367188 96.78125 C 113.511719 95.980469 113.710938 95.199219 113.972656 94.429688 C 114.964844 91.515625 116.519531 88.941406 118.636719 86.707031 C 121.277344 83.871094 124.140625 81.285156 127.234375 78.945312 C 130.324219 76.609375 133.59375 74.554688 137.042969 72.785156 C 140.488281 71.015625 144.0625 69.558594 147.765625 68.410156 C 151.46875 67.265625 155.238281 66.445312 159.082031 65.957031 C 171.050781 64.710938 182.351562 67.800781 188.554688 74.003906 C 199.308594 84.761719 196.554688 112.671875 196.203125 115.816406 L 187.207031 114.816406 C 188.332031 104.59375 187.957031 86.207031 182.15625 80.425781 C 180.605469 79.222656 178.945312 78.195312 177.175781 77.34375 C 175.40625 76.488281 173.570312 75.828125 171.664062 75.359375 C 169.753906 74.894531 167.820312 74.628906 165.859375 74.566406 C 163.894531 74.503906 161.949219 74.648438 160.015625 74.996094 C 156.6875 75.4375 153.417969 76.164062 150.214844 77.171875 C 147.011719 78.183594 143.917969 79.460938 140.933594 81.007812 C 137.953125 82.554688 135.125 84.347656 132.457031 86.386719 C 129.785156 88.425781 127.3125 90.679688 125.035156 93.148438 C 124.582031 93.546875 124.179688 93.984375 123.820312 94.464844 C 123.464844 94.945312 123.160156 95.460938 122.914062 96.007812 C 122.664062 96.554688 122.476562 97.121094 122.351562 97.707031 C 122.226562 98.292969 122.160156 98.886719 122.160156 99.484375 C 122.160156 100.085938 122.226562 100.675781 122.351562 101.265625 C 122.476562 101.851562 122.664062 102.417969 122.914062 102.960938 C 123.160156 103.507812 123.464844 104.023438 123.820312 104.503906 C 124.179688 104.984375 124.582031 105.425781 125.035156 105.820312 C 138.265625 119.050781 147.535156 113.339844 156.496094 107.816406 C 162.378906 104.195312 169.695312 99.671875 175.847656 105.820312 C 187.726562 117.652344 176.984375 135.925781 176.519531 136.71875 Z M 176.519531 136.71875 " fill-opacity="1" fill-rule="nonzero"/><path fill="#000000" d="M 122.925781 113.347656 L 120.726562 104.59375 C 120.972656 104.53125 145.082031 98.378906 156.734375 86.722656 L 163.132812 93.128906 C 149.71875 106.542969 124.011719 113.082031 122.925781 113.347656 Z M 122.925781 113.347656 " fill-opacity="1" fill-rule="nonzero"/><g clip-path="url(#5ba49f2310)"><path fill="#000000" d="M 97.519531 310.023438 C 95.753906 310.027344 94.054688 309.691406 92.421875 309.019531 C 90.789062 308.34375 89.351562 307.382812 88.101562 306.132812 L 44.566406 262.59375 C 43.949219 261.976562 43.398438 261.300781 42.910156 260.574219 C 42.425781 259.847656 42.015625 259.078125 41.679688 258.273438 C 41.347656 257.464844 41.09375 256.628906 40.921875 255.773438 C 40.753906 254.914062 40.667969 254.046875 40.667969 253.171875 C 40.667969 252.296875 40.753906 251.433594 40.921875 250.574219 C 41.09375 249.714844 41.347656 248.882812 41.679688 248.074219 C 42.015625 247.265625 42.425781 246.5 42.910156 245.773438 C 43.398438 245.042969 43.949219 244.371094 44.566406 243.753906 L 119.191406 169.128906 C 119.8125 168.511719 120.484375 167.960938 121.210938 167.476562 C 121.941406 166.992188 122.707031 166.582031 123.515625 166.246094 C 124.324219 165.914062 125.15625 165.660156 126.015625 165.492188 C 126.871094 165.320312 127.738281 165.234375 128.609375 165.234375 C 129.484375 165.234375 130.351562 165.320312 131.207031 165.492188 C 132.066406 165.660156 132.898438 165.914062 133.707031 166.246094 C 134.515625 166.582031 135.28125 166.992188 136.007812 167.476562 C 136.738281 167.960938 137.410156 168.511719 138.03125 169.128906 L 181.5625 212.65625 C 182.183594 213.277344 182.734375 213.949219 183.21875 214.675781 C 183.707031 215.402344 184.117188 216.171875 184.449219 216.980469 C 184.785156 217.789062 185.039062 218.621094 185.207031 219.480469 C 185.378906 220.335938 185.464844 221.203125 185.464844 222.078125 C 185.464844 222.953125 185.378906 223.820312 185.207031 224.675781 C 185.039062 225.535156 184.785156 226.367188 184.449219 227.175781 C 184.117188 227.984375 183.707031 228.753906 183.21875 229.480469 C 182.734375 230.207031 182.183594 230.878906 181.5625 231.5 L 106.9375 306.125 C 105.691406 307.375 104.25 308.335938 102.617188 309.011719 C 100.984375 309.6875 99.285156 310.027344 97.519531 310.023438 Z M 128.613281 174.277344 C 127.4375 174.273438 126.429688 174.691406 125.59375 175.519531 L 50.964844 250.15625 C 50.769531 250.355469 50.589844 250.570312 50.433594 250.800781 C 50.28125 251.035156 50.148438 251.28125 50.039062 251.539062 C 49.933594 251.800781 49.851562 252.066406 49.796875 252.34375 C 49.742188 252.617188 49.714844 252.894531 49.714844 253.175781 C 49.714844 253.457031 49.742188 253.734375 49.796875 254.007812 C 49.851562 254.285156 49.933594 254.550781 50.039062 254.808594 C 50.148438 255.070312 50.28125 255.316406 50.433594 255.546875 C 50.589844 255.78125 50.769531 255.996094 50.964844 256.195312 L 94.496094 299.726562 C 94.695312 299.921875 94.910156 300.097656 95.144531 300.253906 C 95.375 300.410156 95.621094 300.539062 95.882812 300.648438 C 96.140625 300.753906 96.40625 300.835938 96.683594 300.890625 C 96.957031 300.945312 97.234375 300.96875 97.515625 300.96875 C 97.792969 300.96875 98.070312 300.945312 98.347656 300.890625 C 98.621094 300.835938 98.886719 300.753906 99.144531 300.648438 C 99.40625 300.539062 99.652344 300.410156 99.882812 300.253906 C 100.117188 300.097656 100.332031 299.921875 100.53125 299.726562 L 175.164062 225.097656 C 175.363281 224.898438 175.539062 224.683594 175.695312 224.449219 C 175.851562 224.214844 175.984375 223.96875 176.089844 223.710938 C 176.199219 223.453125 176.28125 223.183594 176.335938 222.910156 C 176.390625 222.632812 176.417969 222.355469 176.417969 222.074219 C 176.417969 221.796875 176.390625 221.519531 176.335938 221.242188 C 176.28125 220.96875 176.199219 220.699219 176.089844 220.441406 C 175.984375 220.183594 175.851562 219.9375 175.695312 219.703125 C 175.539062 219.46875 175.363281 219.253906 175.164062 219.054688 L 131.636719 175.527344 C 130.800781 174.691406 129.792969 174.273438 128.613281 174.277344 Z M 128.613281 174.277344 " fill-opacity="1" fill-rule="nonzero"/></g><path fill="#000000" d="M 45.757812 257.230469 L 44.679688 248.246094 L 115.214844 239.773438 L 123.6875 169.242188 L 132.671875 170.316406 L 123.777344 244.382812 C 123.714844 244.882812 123.574219 245.363281 123.355469 245.820312 C 123.132812 246.277344 122.84375 246.683594 122.484375 247.042969 C 122.125 247.398438 121.71875 247.691406 121.265625 247.914062 C 120.808594 248.132812 120.328125 248.277344 119.824219 248.335938 Z M 45.757812 257.230469 " fill-opacity="1" fill-rule="nonzero"/><path fill="#000000" d="M 94.964844 246.675781 L 104.015625 246.675781 L 104.015625 305.5 L 94.964844 305.5 Z M 94.964844 246.675781 " fill-opacity="1" fill-rule="nonzero"/><path fill="#000000" d="M 122.117188 219.527344 L 180.9375 219.527344 L 180.9375 228.574219 L 122.117188 228.574219 Z M 122.117188 219.527344 " fill-opacity="1" fill-rule="nonzero"/><path fill="#000000" d="M 149.265625 273.824219 L 208.089844 273.824219 L 208.089844 282.875 L 149.265625 282.875 Z M 149.265625 273.824219 " fill-opacity="1" fill-rule="nonzero"/><path fill="#000000" d="M 217.136719 273.824219 L 226.1875 273.824219 L 226.1875 282.875 L 217.136719 282.875 Z M 217.136719 273.824219 " fill-opacity="1" fill-rule="nonzero"/><path fill="#000000" d="M 189.988281 291.925781 L 257.863281 291.925781 L 257.863281 300.972656 L 189.988281 300.972656 Z M 189.988281 291.925781 " fill-opacity="1" fill-rule="nonzero"/><path fill="#000000" d="M 266.910156 291.925781 L 275.960938 291.925781 L 275.960938 300.972656 L 266.910156 300.972656 Z M 266.910156 291.925781 " fill-opacity="1" fill-rule="nonzero"/><path fill="#000000" d="M 180.9375 255.726562 L 239.761719 255.726562 L 239.761719 264.773438 L 180.9375 264.773438 Z M 180.9375 255.726562 " fill-opacity="1" fill-rule="nonzero"/><path fill="#000000" d="M 248.8125 255.726562 L 257.863281 255.726562 L 257.863281 264.773438 L 248.8125 264.773438 Z M 248.8125 255.726562 " fill-opacity="1" fill-rule="nonzero"/></svg>