<svg xmlns="http://www.w3.org/2000/svg" xmlns:xlink="http://www.w3.org/1999/xlink" width="500" zoomAndPan="magnify" viewBox="0 0 375 374.999991" height="500" preserveAspectRatio="xMidYMid meet" version="1.0"><defs><clipPath id="1ea681ea3d"><path d="M 37 165 L 183 165 L 183 310.222656 L 37 310.222656 Z M 37 165 " clip-rule="nonzero"/></clipPath></defs><path fill="#d9d9d9" d="M 236.441406 246.382812 C 234.648438 246.386719 232.929688 246.042969 231.273438 245.359375 C 229.621094 244.675781 228.160156 243.703125 226.894531 242.433594 L 150.734375 166.269531 C 150.109375 165.644531 149.550781 164.960938 149.058594 164.222656 C 148.566406 163.488281 148.152344 162.707031 147.816406 161.890625 C 147.476562 161.070312 147.21875 160.226562 147.046875 159.359375 C 146.875 158.488281 146.789062 157.613281 146.789062 156.726562 C 146.789062 155.839844 146.875 154.960938 147.046875 154.09375 C 147.21875 153.222656 147.476562 152.378906 147.816406 151.5625 C 148.152344 150.742188 148.566406 149.964844 149.058594 149.226562 C 149.550781 148.492188 150.109375 147.808594 150.734375 147.179688 L 195.160156 102.753906 C 195.789062 102.128906 196.472656 101.570312 197.207031 101.078125 C 197.945312 100.589844 198.722656 100.171875 199.542969 99.835938 C 200.359375 99.496094 201.203125 99.242188 202.074219 99.066406 C 202.941406 98.894531 203.820312 98.808594 204.707031 98.808594 C 205.589844 98.808594 206.46875 98.894531 207.339844 99.066406 C 208.207031 99.242188 209.050781 99.496094 209.871094 99.835938 C 210.6875 100.171875 211.464844 100.589844 212.203125 101.078125 C 212.941406 101.570312 213.621094 102.128906 214.25 102.753906 L 290.410156 178.90625 C 291.035156 179.535156 291.59375 180.214844 292.085938 180.953125 C 292.578125 181.691406 292.992188 182.46875 293.332031 183.289062 C 293.667969 184.105469 293.925781 184.949219 294.097656 185.820312 C 294.269531 186.6875 294.355469 187.566406 294.355469 188.453125 C 294.355469 189.335938 294.269531 190.214844 294.097656 191.082031 C 293.925781 191.953125 293.667969 192.796875 293.332031 193.617188 C 292.992188 194.433594 292.578125 195.210938 292.085938 195.949219 C 291.59375 196.6875 291.035156 197.367188 290.410156 197.996094 L 245.984375 242.425781 C 244.71875 243.695312 243.261719 244.671875 241.605469 245.355469 C 239.953125 246.042969 238.230469 246.382812 236.441406 246.382812 Z M 233.277344 236.042969 C 233.484375 236.25 233.707031 236.433594 233.953125 236.59375 C 234.195312 236.757812 234.453125 236.894531 234.722656 237.007812 C 234.992188 237.117188 235.269531 237.203125 235.558594 237.257812 C 235.84375 237.316406 236.132812 237.34375 236.425781 237.34375 C 236.71875 237.34375 237.007812 237.316406 237.296875 237.257812 C 237.582031 237.203125 237.863281 237.117188 238.132812 237.007812 C 238.402344 236.894531 238.660156 236.757812 238.902344 236.59375 C 239.144531 236.433594 239.371094 236.25 239.578125 236.042969 L 284.003906 191.613281 C 284.210938 191.40625 284.394531 191.179688 284.558594 190.9375 C 284.71875 190.691406 284.855469 190.4375 284.96875 190.164062 C 285.078125 189.894531 285.164062 189.617188 285.222656 189.328125 C 285.277344 189.042969 285.304688 188.753906 285.304688 188.460938 C 285.304688 188.167969 285.277344 187.878906 285.222656 187.589844 C 285.164062 187.304688 285.078125 187.027344 284.96875 186.753906 C 284.855469 186.484375 284.71875 186.226562 284.558594 185.984375 C 284.394531 185.742188 284.210938 185.515625 284.003906 185.308594 L 207.851562 109.148438 C 207.644531 108.941406 207.421875 108.757812 207.175781 108.59375 C 206.933594 108.433594 206.675781 108.296875 206.40625 108.183594 C 206.136719 108.074219 205.859375 107.988281 205.570312 107.933594 C 205.285156 107.875 204.996094 107.847656 204.703125 107.847656 C 204.410156 107.847656 204.121094 107.875 203.835938 107.933594 C 203.546875 107.988281 203.269531 108.074219 203 108.183594 C 202.730469 108.296875 202.472656 108.433594 202.230469 108.59375 C 201.988281 108.757812 201.761719 108.941406 201.554688 109.148438 L 157.128906 153.589844 C 156.921875 153.792969 156.738281 154.019531 156.574219 154.261719 C 156.414062 154.507812 156.273438 154.761719 156.164062 155.035156 C 156.050781 155.304688 155.964844 155.582031 155.910156 155.871094 C 155.851562 156.15625 155.824219 156.445312 155.824219 156.738281 C 155.824219 157.03125 155.851562 157.320312 155.910156 157.609375 C 155.964844 157.894531 156.050781 158.175781 156.164062 158.445312 C 156.273438 158.714844 156.414062 158.972656 156.574219 159.214844 C 156.738281 159.457031 156.921875 159.683594 157.128906 159.890625 Z M 233.277344 236.042969 " fill-opacity="1" fill-rule="nonzero"/><path fill="#d9d9d9" d="M 289.277344 192.507812 L 213.691406 183.429688 C 213.1875 183.367188 212.707031 183.226562 212.253906 183.007812 C 211.796875 182.785156 211.390625 182.496094 211.03125 182.136719 C 210.671875 181.78125 210.382812 181.375 210.160156 180.917969 C 209.941406 180.460938 209.796875 179.984375 209.738281 179.480469 L 200.664062 103.886719 L 209.636719 102.808594 L 218.292969 174.875 L 290.355469 183.523438 Z M 289.277344 192.507812 " fill-opacity="1" fill-rule="nonzero"/><path fill="#d9d9d9" d="M 150.960938 151.78125 L 209.738281 151.78125 L 209.738281 160.820312 L 150.960938 160.820312 Z M 150.960938 151.78125 " fill-opacity="1" fill-rule="nonzero"/><path fill="#d9d9d9" d="M 232.34375 183.429688 L 241.386719 183.429688 L 241.386719 242.203125 L 232.34375 242.203125 Z M 232.34375 183.429688 " fill-opacity="1" fill-rule="nonzero"/><path fill="#d9d9d9" d="M 293.230469 282.867188 C 292.066406 282.851562 290.914062 282.714844 289.773438 282.464844 C 288.636719 282.210938 287.535156 281.847656 286.472656 281.371094 C 285.40625 280.898438 284.398438 280.320312 283.453125 279.640625 C 282.503906 278.960938 281.636719 278.195312 280.84375 277.339844 C 262.574219 259.066406 271.945312 243.855469 277.550781 234.761719 C 280.640625 229.75 281.777344 227.5 280.84375 226.566406 C 273.957031 219.679688 261.097656 227.179688 260.949219 227.253906 L 256.304688 219.492188 C 257.078125 219.042969 275.339844 208.292969 287.21875 220.171875 C 293.378906 226.3125 288.859375 233.613281 285.242188 239.492188 C 279.722656 248.453125 274.011719 257.714844 287.230469 270.933594 C 287.628906 271.382812 288.066406 271.785156 288.550781 272.140625 C 289.03125 272.496094 289.546875 272.796875 290.089844 273.042969 C 290.636719 273.289062 291.203125 273.476562 291.789062 273.601562 C 292.375 273.726562 292.96875 273.789062 293.566406 273.785156 C 294.164062 273.785156 294.757812 273.722656 295.34375 273.59375 C 295.929688 273.464844 296.496094 273.277344 297.039062 273.03125 C 297.585938 272.78125 298.097656 272.480469 298.578125 272.121094 C 299.058594 271.765625 299.496094 271.359375 299.890625 270.910156 C 323.09375 247.707031 320.523438 221.824219 312.550781 213.855469 C 306.75 208.054688 288.382812 207.675781 278.164062 208.808594 L 277.167969 199.820312 C 280.332031 199.484375 308.203125 196.714844 318.945312 207.464844 C 330.625 219.144531 332.828125 250.75 306.253906 277.324219 C 304.515625 279.046875 302.523438 280.390625 300.273438 281.347656 C 298.023438 282.304688 295.675781 282.8125 293.230469 282.867188 Z M 293.230469 282.867188 " fill-opacity="1" fill-rule="nonzero"/><path fill="#d9d9d9" d="M 288.40625 275.242188 L 279.636719 273.046875 C 279.90625 271.960938 286.441406 246.292969 299.863281 232.867188 L 306.261719 239.261719 C 294.605469 250.933594 288.484375 275 288.40625 275.242188 Z M 288.40625 275.242188 " fill-opacity="1" fill-rule="nonzero"/><path fill="#d9d9d9" d="M 173.671875 136.859375 L 165.921875 132.207031 C 165.992188 132.089844 173.488281 119.230469 166.601562 112.339844 C 165.65625 111.40625 163.4375 112.542969 158.402344 115.636719 C 149.3125 121.234375 134.101562 130.617188 115.828125 112.339844 C 115.226562 111.796875 114.664062 111.214844 114.148438 110.59375 C 113.632812 109.96875 113.160156 109.3125 112.738281 108.617188 C 112.316406 107.925781 111.949219 107.207031 111.632812 106.460938 C 111.316406 105.714844 111.054688 104.953125 110.847656 104.167969 C 110.644531 103.382812 110.496094 102.589844 110.40625 101.785156 C 110.316406 100.980469 110.285156 100.171875 110.3125 99.363281 C 110.339844 98.550781 110.425781 97.75 110.570312 96.953125 C 110.714844 96.15625 110.917969 95.371094 111.175781 94.605469 C 112.167969 91.691406 113.722656 89.121094 115.835938 86.886719 C 118.476562 84.050781 121.339844 81.46875 124.425781 79.132812 C 127.515625 76.796875 130.78125 74.746094 134.226562 72.976562 C 137.671875 71.210938 141.242188 69.753906 144.941406 68.605469 C 148.640625 67.460938 152.410156 66.640625 156.25 66.152344 C 168.210938 64.910156 179.5 67.996094 185.699219 74.195312 C 196.445312 84.941406 193.691406 112.828125 193.339844 115.972656 L 184.351562 114.972656 C 185.476562 104.757812 185.101562 86.390625 179.304688 80.609375 C 177.753906 79.410156 176.09375 78.382812 174.328125 77.53125 C 172.5625 76.675781 170.726562 76.015625 168.820312 75.550781 C 166.914062 75.082031 164.980469 74.816406 163.019531 74.757812 C 161.058594 74.695312 159.113281 74.839844 157.183594 75.183594 C 153.855469 75.625 150.589844 76.351562 147.390625 77.359375 C 144.1875 78.371094 141.097656 79.648438 138.117188 81.191406 C 135.136719 82.738281 132.3125 84.53125 129.644531 86.566406 C 126.976562 88.605469 124.507812 90.859375 122.230469 93.324219 C 121.777344 93.71875 121.375 94.15625 121.015625 94.636719 C 120.660156 95.121094 120.359375 95.632812 120.109375 96.179688 C 119.863281 96.726562 119.675781 97.289062 119.550781 97.875 C 119.421875 98.460938 119.359375 99.054688 119.359375 99.652344 C 119.359375 100.253906 119.421875 100.847656 119.550781 101.433594 C 119.675781 102.019531 119.863281 102.582031 120.109375 103.128906 C 120.359375 103.675781 120.660156 104.1875 121.015625 104.667969 C 121.375 105.152344 121.777344 105.589844 122.230469 105.984375 C 135.449219 119.203125 144.714844 113.5 153.664062 107.976562 C 159.542969 104.359375 166.855469 99.839844 173.003906 105.984375 C 184.871094 117.808594 174.136719 136.0625 173.671875 136.859375 Z M 173.671875 136.859375 " fill-opacity="1" fill-rule="nonzero"/><path fill="#d9d9d9" d="M 120.121094 113.507812 L 117.925781 104.757812 C 118.167969 104.695312 142.261719 98.550781 153.90625 86.90625 L 160.296875 93.300781 C 146.894531 106.707031 121.207031 113.242188 120.121094 113.507812 Z M 120.121094 113.507812 " fill-opacity="1" fill-rule="nonzero"/><g clip-path="url(#1ea681ea3d)"><path fill="#d9d9d9" d="M 94.734375 310.023438 C 92.972656 310.027344 91.273438 309.691406 89.644531 309.019531 C 88.011719 308.34375 86.574219 307.382812 85.328125 306.132812 L 41.828125 262.632812 C 41.210938 262.011719 40.660156 261.339844 40.171875 260.613281 C 39.6875 259.886719 39.277344 259.121094 38.945312 258.3125 C 38.609375 257.503906 38.355469 256.671875 38.1875 255.816406 C 38.015625 254.957031 37.929688 254.09375 37.929688 253.21875 C 37.929688 252.34375 38.015625 251.476562 38.1875 250.621094 C 38.355469 249.761719 38.609375 248.929688 38.945312 248.125 C 39.277344 247.316406 39.6875 246.550781 40.171875 245.820312 C 40.660156 245.09375 41.210938 244.421875 41.828125 243.804688 L 116.390625 169.242188 C 117.011719 168.625 117.683594 168.074219 118.410156 167.589844 C 119.136719 167.105469 119.90625 166.695312 120.710938 166.363281 C 121.519531 166.027344 122.351562 165.777344 123.207031 165.605469 C 124.066406 165.4375 124.929688 165.351562 125.804688 165.351562 C 126.675781 165.351562 127.542969 165.4375 128.398438 165.605469 C 129.253906 165.777344 130.085938 166.027344 130.894531 166.363281 C 131.703125 166.695312 132.46875 167.105469 133.195312 167.589844 C 133.921875 168.074219 134.597656 168.625 135.214844 169.242188 L 178.714844 212.734375 C 179.332031 213.351562 179.882812 214.023438 180.367188 214.753906 C 180.855469 215.480469 181.265625 216.246094 181.597656 217.054688 C 181.933594 217.859375 182.183594 218.695312 182.355469 219.550781 C 182.527344 220.40625 182.609375 221.273438 182.609375 222.148438 C 182.609375 223.023438 182.527344 223.886719 182.355469 224.746094 C 182.183594 225.601562 181.933594 226.433594 181.597656 227.242188 C 181.265625 228.050781 180.855469 228.816406 180.367188 229.542969 C 179.882812 230.269531 179.332031 230.941406 178.714844 231.5625 L 104.148438 306.125 C 102.902344 307.375 101.460938 308.335938 99.832031 309.011719 C 98.199219 309.6875 96.5 310.023438 94.734375 310.023438 Z M 125.804688 174.386719 C 124.628906 174.382812 123.625 174.796875 122.789062 175.628906 L 48.222656 250.203125 C 48.023438 250.398438 47.847656 250.617188 47.691406 250.847656 C 47.535156 251.082031 47.402344 251.328125 47.296875 251.585938 C 47.1875 251.847656 47.109375 252.113281 47.054688 252.386719 C 47 252.664062 46.972656 252.941406 46.972656 253.21875 C 46.972656 253.5 47 253.777344 47.054688 254.050781 C 47.109375 254.328125 47.1875 254.59375 47.296875 254.851562 C 47.402344 255.113281 47.535156 255.359375 47.691406 255.589844 C 47.847656 255.824219 48.023438 256.039062 48.222656 256.238281 L 91.714844 299.730469 C 91.914062 299.929688 92.128906 300.105469 92.363281 300.261719 C 92.597656 300.414062 92.839844 300.546875 93.101562 300.652344 C 93.359375 300.761719 93.625 300.839844 93.898438 300.894531 C 94.175781 300.949219 94.453125 300.976562 94.730469 300.976562 C 95.011719 300.976562 95.289062 300.949219 95.5625 300.894531 C 95.835938 300.839844 96.105469 300.761719 96.363281 300.652344 C 96.621094 300.546875 96.867188 300.414062 97.101562 300.261719 C 97.332031 300.105469 97.546875 299.929688 97.746094 299.730469 L 172.320312 225.164062 C 172.519531 224.964844 172.695312 224.75 172.851562 224.515625 C 173.007812 224.285156 173.136719 224.039062 173.246094 223.777344 C 173.351562 223.519531 173.433594 223.253906 173.488281 222.976562 C 173.542969 222.703125 173.570312 222.425781 173.570312 222.144531 C 173.570312 221.867188 173.542969 221.585938 173.488281 221.3125 C 173.433594 221.039062 173.351562 220.769531 173.246094 220.511719 C 173.136719 220.253906 173.007812 220.007812 172.851562 219.773438 C 172.695312 219.542969 172.519531 219.324219 172.320312 219.128906 L 128.824219 175.632812 C 127.992188 174.800781 126.984375 174.382812 125.804688 174.386719 Z M 125.804688 174.386719 " fill-opacity="1" fill-rule="nonzero"/></g><path fill="#d9d9d9" d="M 43.015625 257.273438 L 41.941406 248.292969 L 112.417969 239.832031 L 120.882812 169.351562 L 129.859375 170.429688 L 120.972656 244.433594 C 120.914062 244.9375 120.773438 245.414062 120.550781 245.871094 C 120.328125 246.324219 120.039062 246.734375 119.683594 247.089844 C 119.324219 247.449219 118.917969 247.738281 118.460938 247.960938 C 118.007812 248.183594 117.527344 248.324219 117.027344 248.382812 Z M 43.015625 257.273438 " fill-opacity="1" fill-rule="nonzero"/><path fill="#d9d9d9" d="M 92.1875 246.726562 L 101.226562 246.726562 L 101.226562 305.5 L 92.1875 305.5 Z M 92.1875 246.726562 " fill-opacity="1" fill-rule="nonzero"/><path fill="#d9d9d9" d="M 119.3125 219.597656 L 178.089844 219.597656 L 178.089844 228.640625 L 119.3125 228.640625 Z M 119.3125 219.597656 " fill-opacity="1" fill-rule="nonzero"/><path fill="#d9d9d9" d="M 146.441406 273.851562 L 205.214844 273.851562 L 205.214844 282.894531 L 146.441406 282.894531 Z M 146.441406 273.851562 " fill-opacity="1" fill-rule="nonzero"/><path fill="#d9d9d9" d="M 214.257812 273.851562 L 223.300781 273.851562 L 223.300781 282.894531 L 214.257812 282.894531 Z M 214.257812 273.851562 " fill-opacity="1" fill-rule="nonzero"/><path fill="#d9d9d9" d="M 187.132812 291.9375 L 254.949219 291.9375 L 254.949219 300.980469 L 187.132812 300.980469 Z M 187.132812 291.9375 " fill-opacity="1" fill-rule="nonzero"/><path fill="#d9d9d9" d="M 263.992188 291.9375 L 273.035156 291.9375 L 273.035156 300.980469 L 263.992188 300.980469 Z M 263.992188 291.9375 " fill-opacity="1" fill-rule="nonzero"/><path fill="#d9d9d9" d="M 178.089844 255.769531 L 236.867188 255.769531 L 236.867188 264.808594 L 178.089844 264.808594 Z M 178.089844 255.769531 " fill-opacity="1" fill-rule="nonzero"/><path fill="#d9d9d9" d="M 245.90625 255.769531 L 254.949219 255.769531 L 254.949219 264.808594 L 245.90625 264.808594 Z M 245.90625 255.769531 " fill-opacity="1" fill-rule="nonzero"/></svg>